# Wavefront OBJ file made by Mineways version 12.04, http://mineways.com
# World: Final Build World
# Terrain file name: C:\Users\noahf\Downloads\mineways\mineways\terrainExt.png
# Color scheme: Standard
# Tue May 20 08:02:57 2025

# Selection location min to max: 2250, 64, 1167 to 2264, 319, 1181
#   Non-empty selection location min to max: 2250, 64, 1167 to 2264, 64, 1181

# Set render type: Wavefront OBJ absolute indices
# Units for the model vertex data itself: meters

# 268 vertices, 266 faces (532 triangles), 90 blocks, 0 billboards/bits
# block dimensions: X=15 by Y=1 (height) by Z=15 blocks
# Elevation shading: no
# Lighting: no
# Transparent water: no
# Map grid: no
# File type: Export individual textures to directory tex
# Texture output RGB: YES
# Texture output A: YES
# Texture output RGBA: YES
# Export separate types: YES
# Export individual blocks: no
#   Material per family: YES
#   Split by block type: YES
# Make groups objects: no
# Custom material: YES
# Export lesser blocks: YES
# Fatten lesser blocks: no
# Simplify mesh: no
# Double all billboard faces: no
# Create composite overlay faces: no
# Center model: YES
# Use biomes: no
# Create block faces at the borders: YES
# Tree leaves solid: no
# Rotate model 0.000000 degrees
# Make Z the up direction instead of Y: no
# Scale model by making each block 1000 mm high
# Data operation options:
#   Fill air bubbles: no; Seal off entrances: no; Fill in isolated tunnels in base of model: no
#   Connect parts sharing an edge: no; Connect corner tips: no; Weld all shared edges: no
#   Delete floating objects: trees and parts smaller than 16 blocks: no
#   Hollow out bottom of model, making the walls 1000 mm thick: no; Superhollow: no
# Melt snow blocks: no
#   Debug: show separate parts as colors: no
#   Debug: show weld blocks in bright colors: no

# Full world path: C:\Users\noahf\curseforge\minecraft\Instances\Accelera\saves\Final Build World
# Full terrainExt.png path: C:\Users\noahf\Downloads\mineways\mineways\terrainExt.png
# Full current path: C:\Users\noahf\Downloads\mineways\mineways

# COMMON_MC_OBJ_START
# version: 1
# exporter: mineways
# world_name: Final Build World
# world_path: C:\Users\noahf\curseforge\minecraft\Instances\Accelera\saves\Final Build World
# export_bounds_min: (2250, 64, 1167)
# export_bounds_max: (2264, 319, 1181)
# export_offset: (-2257.000000, -64.000000, -1174.000000)
# block_scale: 1
# block_origin_offset: (0.000000, 0.000000, 0.000000)
# z_up: false
# texture_type: INDIVIDUAL_TILES
# has_split_blocks: true
# COMMON_MC_OBJ_END

mtllib eigth_notes.mtl

o Final_Build_World__2250_64_1167_to_2264_319_1181
vn -1 0 0
vn 0 -1 0
vn 0 0 -1
vn 1 0 0
vn 0 1 0
vn 0 0 1
vn -0.707107 0 -0.707107
vn -0.707107 0 0.707107
vn 0.707107 0 -0.707107
vn 0.707107 0 0.707107
vn -0.707107 -0.707107 0
vn 0 -0.707107 -0.707107
vn 0.707107 -0.707107 0
vn 0 -0.707107 0.707107
vn -0.707107 0.707107 0
vn 0 0.707107 -0.707107
vn 0.707107 0.707107 0
vn 0 0.707107 0.707107
vn -0.92388 0 -0.382683
vn -0.92388 0 0.382683
vn 0.92388 0 -0.382683
vn 0.92388 0 0.382683
vn -0.382683 0 -0.92388
vn -0.382683 0 0.92388
vn 0.382683 0 -0.92388
vn 0.382683 0 0.92388
vn -0.397273 0.9177 0
vn 0.397273 -0.9177 0
vn 0.397273 0.9177 0
vn -0.397273 -0.9177 0
vn 0 0.9177 -0.397273
vn 0 -0.9177 0.397273
vn 0 0.9177 0.397273
vn 0 -0.9177 -0.397273
vn -0.440932 0.897541 0
vn 0.440932 -0.897541 0
vn 0.440932 0.897541 0
vn -0.440932 -0.897541 0
vn 0 0.897541 -0.440932
vn 0 -0.897541 0.440932
vn 0 0.897541 0.440932
vn 0 -0.897541 -0.440932
vt 0.000000000 0.000000000
vt 1.000000000 0.000000000
vt 0.000000000 1.000000000
vt 1.000000000 1.000000000
v -7 0 4
v -7 0 5
v -7 1 5
v -7 1 4
v -6 0 5
v -6 0 4
v -6 1 4
v -6 1 5
v -7 0 6
v -7 1 6
v -6 0 6
v -6 1 6
v -7 0 7
v -7 1 7
v -6 0 7
v -6 1 7
v -6 0 3
v -6 1 3
v -5 0 4
v -5 0 3
v -5 1 3
v -5 1 4
v -5 0 5
v -5 1 5
v -5 0 6
v -5 1 6
v -5 0 7
v -5 1 7
v -6 0 8
v -6 1 8
v -5 0 8
v -5 1 8
v -4 0 4
v -4 0 3
v -4 1 3
v -4 1 4
v -4 0 5
v -4 1 5
v -4 0 6
v -4 1 6
v -4 0 7
v -4 1 7
v -4 0 8
v -4 1 8
v -4 0 -3
v -4 0 -2
v -4 1 -2
v -4 1 -3
v -3 0 -2
v -3 0 -3
v -3 1 -3
v -3 1 -2
v -4 0 -1
v -4 1 -1
v -3 0 -1
v -3 1 -1
v -4 0 0
v -4 1 0
v -3 0 0
v -3 1 0
v -4 0 1
v -4 1 1
v -3 0 1
v -3 1 1
v -4 0 2
v -4 1 2
v -3 0 2
v -3 1 2
v -3 0 3
v -3 1 3
v -3 0 4
v -3 1 4
v -3 0 5
v -3 1 5
v -3 0 6
v -3 1 6
v -3 0 7
v -3 1 7
v -3 0 8
v -3 1 8
v -3 0 -4
v -3 1 -4
v -2 0 -3
v -2 0 -4
v -2 1 -4
v -2 1 -3
v -2 0 -2
v -2 1 -2
v -2 0 -1
v -2 1 -1
v -2 0 0
v -2 1 0
v -2 0 1
v -2 1 1
v -2 0 2
v -2 1 2
v -2 0 3
v -2 1 3
v -2 0 4
v -2 1 4
v -2 0 5
v -2 1 5
v -2 0 6
v -2 1 6
v -2 0 7
v -2 1 7
v -1 0 -3
v -1 0 -4
v -1 1 -4
v -1 1 -3
v -1 0 -2
v -1 1 -2
v -1 0 -5
v -1 1 -5
v 0 0 -4
v 0 0 -5
v 0 1 -5
v 0 1 -4
v 0 0 -3
v 0 1 -3
v 0 0 -2
v 0 1 -2
v 1 0 -4
v 1 0 -5
v 1 1 -5
v 1 1 -4
v 1 0 -3
v 1 1 -3
v 1 0 -6
v 1 1 -6
v 2 0 -5
v 2 0 -6
v 2 1 -6
v 2 1 -5
v 2 0 -4
v 2 1 -4
v 2 0 -3
v 2 1 -3
v 3 0 -5
v 3 0 -6
v 3 1 -6
v 3 1 -5
v 3 0 -4
v 3 1 -4
v 3 0 -7
v 3 1 -7
v 4 0 -6
v 4 0 -7
v 4 1 -7
v 4 1 -6
v 4 0 -5
v 4 1 -5
v 4 0 -4
v 4 1 -4
v 3 0 1
v 3 0 2
v 3 1 2
v 3 1 1
v 4 0 2
v 4 0 1
v 4 1 1
v 4 1 2
v 3 0 3
v 3 1 3
v 4 0 3
v 4 1 3
v 3 0 4
v 3 1 4
v 4 0 4
v 4 1 4
v 5 0 -6
v 5 0 -7
v 5 1 -7
v 5 1 -6
v 5 0 -5
v 5 1 -5
v 4 0 0
v 4 1 0
v 5 0 1
v 5 0 0
v 5 1 0
v 5 1 1
v 5 0 2
v 5 1 2
v 5 0 3
v 5 1 3
v 5 0 4
v 5 1 4
v 4 0 5
v 4 1 5
v 5 0 5
v 5 1 5
v 6 0 -6
v 6 0 -7
v 6 1 -7
v 6 1 -6
v 6 0 -5
v 6 1 -5
v 6 0 1
v 6 0 0
v 6 1 0
v 6 1 1
v 6 0 2
v 6 1 2
v 6 0 3
v 6 1 3
v 6 0 4
v 6 1 4
v 6 0 5
v 6 1 5
v 7 0 -6
v 7 0 -7
v 7 1 -7
v 7 1 -6
v 7 0 -5
v 7 1 -5
v 6 0 -4
v 6 1 -4
v 7 0 -4
v 7 1 -4
v 6 0 -3
v 6 1 -3
v 7 0 -3
v 7 1 -3
v 6 0 -2
v 6 1 -2
v 7 0 -2
v 7 1 -2
v 6 0 -1
v 6 1 -1
v 7 0 -1
v 7 1 -1
v 7 0 0
v 7 1 0
v 7 0 1
v 7 1 1
v 7 0 2
v 7 1 2
v 7 0 3
v 7 1 3
v 7 0 4
v 7 1 4
v 7 0 5
v 7 1 5
v 8 0 -6
v 8 0 -7
v 8 1 -7
v 8 1 -6
v 8 0 -5
v 8 1 -5
v 8 0 -4
v 8 1 -4
v 8 0 -3
v 8 1 -3
v 8 0 -2
v 8 1 -2
v 8 0 -1
v 8 1 -1
v 8 0 0
v 8 1 0
v 8 0 1
v 8 1 1
v 8 0 2
v 8 1 2
v 8 0 3
v 8 1 3
v 8 0 4
v 8 1 4

g Light_Wool
usemtl light_blue_wool
f 2/2/1 3/4/1 4/3/1 1/1/1
f 2/3/2 1/1/2 6/2/2 5/4/2
f 1/2/3 4/4/3 7/3/3 6/1/3
f 3/1/5 8/2/5 7/4/5 4/3/5
f 9/2/1 10/4/1 3/3/1 2/1/1
f 9/3/2 2/1/2 5/2/2 11/4/2
f 10/1/5 12/2/5 8/4/5 3/3/5
f 13/2/1 14/4/1 10/3/1 9/1/1
f 13/3/2 9/1/2 11/2/2 15/4/2
f 14/1/5 16/2/5 12/4/5 10/3/5
f 13/1/6 15/2/6 16/4/6 14/3/6
f 6/2/1 7/4/1 18/3/1 17/1/1
f 6/3/2 17/1/2 20/2/2 19/4/2
f 17/2/3 18/4/3 21/3/3 20/1/3
f 7/1/5 22/2/5 21/4/5 18/3/5
f 5/3/2 6/1/2 19/2/2 23/4/2
f 8/1/5 24/2/5 22/4/5 7/3/5
f 11/3/2 5/1/2 23/2/2 25/4/2
f 12/1/5 26/2/5 24/4/5 8/3/5
f 15/3/2 11/1/2 25/2/2 27/4/2
f 16/1/5 28/2/5 26/4/5 12/3/5
f 29/2/1 30/4/1 16/3/1 15/1/1
f 29/3/2 15/1/2 27/2/2 31/4/2
f 30/1/5 32/2/5 28/4/5 16/3/5
f 29/1/6 31/2/6 32/4/6 30/3/6
f 19/3/2 20/1/2 34/2/2 33/4/2
f 20/2/3 21/4/3 35/3/3 34/1/3
f 22/1/5 36/2/5 35/4/5 21/3/5
f 23/3/2 19/1/2 33/2/2 37/4/2
f 24/1/5 38/2/5 36/4/5 22/3/5
f 25/3/2 23/1/2 37/2/2 39/4/2
f 26/1/5 40/2/5 38/4/5 24/3/5
f 27/3/2 25/1/2 39/2/2 41/4/2
f 28/1/5 42/2/5 40/4/5 26/3/5
f 31/3/2 27/1/2 41/2/2 43/4/2
f 32/1/5 44/2/5 42/4/5 28/3/5
f 31/1/6 43/2/6 44/4/6 32/3/6
f 46/2/1 47/4/1 48/3/1 45/1/1
f 46/3/2 45/1/2 50/2/2 49/4/2
f 45/2/3 48/4/3 51/3/3 50/1/3
f 47/1/5 52/2/5 51/4/5 48/3/5
f 53/2/1 54/4/1 47/3/1 46/1/1
f 53/3/2 46/1/2 49/2/2 55/4/2
f 54/1/5 56/2/5 52/4/5 47/3/5
f 57/2/1 58/4/1 54/3/1 53/1/1
f 57/3/2 53/1/2 55/2/2 59/4/2
f 58/1/5 60/2/5 56/4/5 54/3/5
f 61/2/1 62/4/1 58/3/1 57/1/1
f 61/3/2 57/1/2 59/2/2 63/4/2
f 62/1/5 64/2/5 60/4/5 58/3/5
f 65/2/1 66/4/1 62/3/1 61/1/1
f 65/3/2 61/1/2 63/2/2 67/4/2
f 66/1/5 68/2/5 64/4/5 62/3/5
f 34/2/1 35/4/1 66/3/1 65/1/1
f 34/3/2 65/1/2 67/2/2 69/4/2
f 35/1/5 70/2/5 68/4/5 66/3/5
f 33/3/2 34/1/2 69/2/2 71/4/2
f 36/1/5 72/2/5 70/4/5 35/3/5
f 37/3/2 33/1/2 71/2/2 73/4/2
f 38/1/5 74/2/5 72/4/5 36/3/5
f 39/3/2 37/1/2 73/2/2 75/4/2
f 40/1/5 76/2/5 74/4/5 38/3/5
f 41/3/2 39/1/2 75/2/2 77/4/2
f 42/1/5 78/2/5 76/4/5 40/3/5
f 43/3/2 41/1/2 77/2/2 79/4/2
f 79/1/4 77/2/4 78/4/4 80/3/4
f 44/1/5 80/2/5 78/4/5 42/3/5
f 43/1/6 79/2/6 80/4/6 44/3/6
f 50/2/1 51/4/1 82/3/1 81/1/1
f 50/3/2 81/1/2 84/2/2 83/4/2
f 81/2/3 82/4/3 85/3/3 84/1/3
f 51/1/5 86/2/5 85/4/5 82/3/5
f 49/3/2 50/1/2 83/2/2 87/4/2
f 52/1/5 88/2/5 86/4/5 51/3/5
f 55/3/2 49/1/2 87/2/2 89/4/2
f 89/1/4 87/2/4 88/4/4 90/3/4
f 56/1/5 90/2/5 88/4/5 52/3/5
f 59/3/2 55/1/2 89/2/2 91/4/2
f 91/1/4 89/2/4 90/4/4 92/3/4
f 60/1/5 92/2/5 90/4/5 56/3/5
f 63/3/2 59/1/2 91/2/2 93/4/2
f 93/1/4 91/2/4 92/4/4 94/3/4
f 64/1/5 94/2/5 92/4/5 60/3/5
f 67/3/2 63/1/2 93/2/2 95/4/2
f 95/1/4 93/2/4 94/4/4 96/3/4
f 68/1/5 96/2/5 94/4/5 64/3/5
f 69/3/2 67/1/2 95/2/2 97/4/2
f 97/1/4 95/2/4 96/4/4 98/3/4
f 70/1/5 98/2/5 96/4/5 68/3/5
f 71/3/2 69/1/2 97/2/2 99/4/2
f 99/1/4 97/2/4 98/4/4 100/3/4
f 72/1/5 100/2/5 98/4/5 70/3/5
f 73/3/2 71/1/2 99/2/2 101/4/2
f 101/1/4 99/2/4 100/4/4 102/3/4
f 74/1/5 102/2/5 100/4/5 72/3/5
f 75/3/2 73/1/2 101/2/2 103/4/2
f 103/1/4 101/2/4 102/4/4 104/3/4
f 76/1/5 104/2/5 102/4/5 74/3/5
f 77/3/2 75/1/2 103/2/2 105/4/2
f 105/1/4 103/2/4 104/4/4 106/3/4
f 78/1/5 106/2/5 104/4/5 76/3/5
f 77/1/6 105/2/6 106/4/6 78/3/6
f 83/3/2 84/1/2 108/2/2 107/4/2
f 84/2/3 85/4/3 109/3/3 108/1/3
f 86/1/5 110/2/5 109/4/5 85/3/5
f 87/3/2 83/1/2 107/2/2 111/4/2
f 88/1/5 112/2/5 110/4/5 86/3/5
f 87/1/6 111/2/6 112/4/6 88/3/6
f 108/2/1 109/4/1 114/3/1 113/1/1
f 108/3/2 113/1/2 116/2/2 115/4/2
f 113/2/3 114/4/3 117/3/3 116/1/3
f 109/1/5 118/2/5 117/4/5 114/3/5
f 107/3/2 108/1/2 115/2/2 119/4/2
f 110/1/5 120/2/5 118/4/5 109/3/5
f 111/3/2 107/1/2 119/2/2 121/4/2
f 121/1/4 119/2/4 120/4/4 122/3/4
f 112/1/5 122/2/5 120/4/5 110/3/5
f 111/1/6 121/2/6 122/4/6 112/3/6
f 115/3/2 116/1/2 124/2/2 123/4/2
f 116/2/3 117/4/3 125/3/3 124/1/3
f 118/1/5 126/2/5 125/4/5 117/3/5
f 119/3/2 115/1/2 123/2/2 127/4/2
f 120/1/5 128/2/5 126/4/5 118/3/5
f 119/1/6 127/2/6 128/4/6 120/3/6
f 124/2/1 125/4/1 130/3/1 129/1/1
f 124/3/2 129/1/2 132/2/2 131/4/2
f 129/2/3 130/4/3 133/3/3 132/1/3
f 125/1/5 134/2/5 133/4/5 130/3/5
f 123/3/2 124/1/2 131/2/2 135/4/2
f 126/1/5 136/2/5 134/4/5 125/3/5
f 127/3/2 123/1/2 135/2/2 137/4/2
f 137/1/4 135/2/4 136/4/4 138/3/4
f 128/1/5 138/2/5 136/4/5 126/3/5
f 127/1/6 137/2/6 138/4/6 128/3/6
f 131/3/2 132/1/2 140/2/2 139/4/2
f 132/2/3 133/4/3 141/3/3 140/1/3
f 134/1/5 142/2/5 141/4/5 133/3/5
f 135/3/2 131/1/2 139/2/2 143/4/2
f 136/1/5 144/2/5 142/4/5 134/3/5
f 135/1/6 143/2/6 144/4/6 136/3/6
f 140/2/1 141/4/1 146/3/1 145/1/1
f 140/3/2 145/1/2 148/2/2 147/4/2
f 145/2/3 146/4/3 149/3/3 148/1/3
f 141/1/5 150/2/5 149/4/5 146/3/5
f 139/3/2 140/1/2 147/2/2 151/4/2
f 142/1/5 152/2/5 150/4/5 141/3/5
f 143/3/2 139/1/2 151/2/2 153/4/2
f 153/1/4 151/2/4 152/4/4 154/3/4
f 144/1/5 154/2/5 152/4/5 142/3/5
f 143/1/6 153/2/6 154/4/6 144/3/6
f 156/2/1 157/4/1 158/3/1 155/1/1
f 156/3/2 155/1/2 160/2/2 159/4/2
f 155/2/3 158/4/3 161/3/3 160/1/3
f 157/1/5 162/2/5 161/4/5 158/3/5
f 163/2/1 164/4/1 157/3/1 156/1/1
f 163/3/2 156/1/2 159/2/2 165/4/2
f 164/1/5 166/2/5 162/4/5 157/3/5
f 167/2/1 168/4/1 164/3/1 163/1/1
f 167/3/2 163/1/2 165/2/2 169/4/2
f 168/1/5 170/2/5 166/4/5 164/3/5
f 167/1/6 169/2/6 170/4/6 168/3/6
f 147/3/2 148/1/2 172/2/2 171/4/2
f 148/2/3 149/4/3 173/3/3 172/1/3
f 150/1/5 174/2/5 173/4/5 149/3/5
f 151/3/2 147/1/2 171/2/2 175/4/2
f 152/1/5 176/2/5 174/4/5 150/3/5
f 151/1/6 175/2/6 176/4/6 152/3/6
f 160/2/1 161/4/1 178/3/1 177/1/1
f 160/3/2 177/1/2 180/2/2 179/4/2
f 177/2/3 178/4/3 181/3/3 180/1/3
f 161/1/5 182/2/5 181/4/5 178/3/5
f 159/3/2 160/1/2 179/2/2 183/4/2
f 162/1/5 184/2/5 182/4/5 161/3/5
f 165/3/2 159/1/2 183/2/2 185/4/2
f 166/1/5 186/2/5 184/4/5 162/3/5
f 169/3/2 165/1/2 185/2/2 187/4/2
f 170/1/5 188/2/5 186/4/5 166/3/5
f 189/2/1 190/4/1 170/3/1 169/1/1
f 189/3/2 169/1/2 187/2/2 191/4/2
f 190/1/5 192/2/5 188/4/5 170/3/5
f 189/1/6 191/2/6 192/4/6 190/3/6
f 171/3/2 172/1/2 194/2/2 193/4/2
f 172/2/3 173/4/3 195/3/3 194/1/3
f 174/1/5 196/2/5 195/4/5 173/3/5
f 175/3/2 171/1/2 193/2/2 197/4/2
f 176/1/5 198/2/5 196/4/5 174/3/5
f 175/1/6 197/2/6 198/4/6 176/3/6
f 179/3/2 180/1/2 200/2/2 199/4/2
f 180/2/3 181/4/3 201/3/3 200/1/3
f 182/1/5 202/2/5 201/4/5 181/3/5
f 183/3/2 179/1/2 199/2/2 203/4/2
f 184/1/5 204/2/5 202/4/5 182/3/5
f 185/3/2 183/1/2 203/2/2 205/4/2
f 186/1/5 206/2/5 204/4/5 184/3/5
f 187/3/2 185/1/2 205/2/2 207/4/2
f 188/1/5 208/2/5 206/4/5 186/3/5
f 191/3/2 187/1/2 207/2/2 209/4/2
f 192/1/5 210/2/5 208/4/5 188/3/5
f 191/1/6 209/2/6 210/4/6 192/3/6
f 193/3/2 194/1/2 212/2/2 211/4/2
f 194/2/3 195/4/3 213/3/3 212/1/3
f 196/1/5 214/2/5 213/4/5 195/3/5
f 197/3/2 193/1/2 211/2/2 215/4/2
f 198/1/5 216/2/5 214/4/5 196/3/5
f 217/2/1 218/4/1 198/3/1 197/1/1
f 217/3/2 197/1/2 215/2/2 219/4/2
f 218/1/5 220/2/5 216/4/5 198/3/5
f 221/2/1 222/4/1 218/3/1 217/1/1
f 221/3/2 217/1/2 219/2/2 223/4/2
f 222/1/5 224/2/5 220/4/5 218/3/5
f 225/2/1 226/4/1 222/3/1 221/1/1
f 225/3/2 221/1/2 223/2/2 227/4/2
f 226/1/5 228/2/5 224/4/5 222/3/5
f 229/2/1 230/4/1 226/3/1 225/1/1
f 229/3/2 225/1/2 227/2/2 231/4/2
f 230/1/5 232/2/5 228/4/5 226/3/5
f 200/2/1 201/4/1 230/3/1 229/1/1
f 200/3/2 229/1/2 231/2/2 233/4/2
f 201/1/5 234/2/5 232/4/5 230/3/5
f 199/3/2 200/1/2 233/2/2 235/4/2
f 202/1/5 236/2/5 234/4/5 201/3/5
f 203/3/2 199/1/2 235/2/2 237/4/2
f 204/1/5 238/2/5 236/4/5 202/3/5
f 205/3/2 203/1/2 237/2/2 239/4/2
f 206/1/5 240/2/5 238/4/5 204/3/5
f 207/3/2 205/1/2 239/2/2 241/4/2
f 208/1/5 242/2/5 240/4/5 206/3/5
f 209/3/2 207/1/2 241/2/2 243/4/2
f 243/1/4 241/2/4 242/4/4 244/3/4
f 210/1/5 244/2/5 242/4/5 208/3/5
f 209/1/6 243/2/6 244/4/6 210/3/6
f 211/3/2 212/1/2 246/2/2 245/4/2
f 212/2/3 213/4/3 247/3/3 246/1/3
f 245/1/4 246/2/4 247/4/4 248/3/4
f 214/1/5 248/2/5 247/4/5 213/3/5
f 215/3/2 211/1/2 245/2/2 249/4/2
f 249/1/4 245/2/4 248/4/4 250/3/4
f 216/1/5 250/2/5 248/4/5 214/3/5
f 219/3/2 215/1/2 249/2/2 251/4/2
f 251/1/4 249/2/4 250/4/4 252/3/4
f 220/1/5 252/2/5 250/4/5 216/3/5
f 223/3/2 219/1/2 251/2/2 253/4/2
f 253/1/4 251/2/4 252/4/4 254/3/4
f 224/1/5 254/2/5 252/4/5 220/3/5
f 227/3/2 223/1/2 253/2/2 255/4/2
f 255/1/4 253/2/4 254/4/4 256/3/4
f 228/1/5 256/2/5 254/4/5 224/3/5
f 231/3/2 227/1/2 255/2/2 257/4/2
f 257/1/4 255/2/4 256/4/4 258/3/4
f 232/1/5 258/2/5 256/4/5 228/3/5
f 233/3/2 231/1/2 257/2/2 259/4/2
f 259/1/4 257/2/4 258/4/4 260/3/4
f 234/1/5 260/2/5 258/4/5 232/3/5
f 235/3/2 233/1/2 259/2/2 261/4/2
f 261/1/4 259/2/4 260/4/4 262/3/4
f 236/1/5 262/2/5 260/4/5 234/3/5
f 237/3/2 235/1/2 261/2/2 263/4/2
f 263/1/4 261/2/4 262/4/4 264/3/4
f 238/1/5 264/2/5 262/4/5 236/3/5
f 239/3/2 237/1/2 263/2/2 265/4/2
f 265/1/4 263/2/4 264/4/4 266/3/4
f 240/1/5 266/2/5 264/4/5 238/3/5
f 241/3/2 239/1/2 265/2/2 267/4/2
f 267/1/4 265/2/4 266/4/4 268/3/4
f 242/1/5 268/2/5 266/4/5 240/3/5
f 241/1/6 267/2/6 268/4/6 242/3/6
